<!DOCTYPE svg PUBLIC "-//W3C//DTD SVG 1.1//EN" "http://www.w3.org/Graphics/SVG/1.1/DTD/svg11.dtd">
<!-- Uploaded to: SVG Repo, www.svgrepo.com, Transformed by: SVG Repo Mixer Tools -->
<svg fill="#000000" version="1.1" id="Layer_1" xmlns="http://www.w3.org/2000/svg" xmlns:xlink="http://www.w3.org/1999/xlink" viewBox="0 0 245.982 245.982" xml:space="preserve" width="800px" height="800px">
<g id="SVGRepo_bgCarrier" stroke-width="0"/>
<g id="SVGRepo_tracerCarrier" stroke-linecap="round" stroke-linejoin="round"/>
<g id="SVGRepo_iconCarrier"> <g> <g> <g> <path d="M158.696,131.309l0.46-2.14l-2.172-0.264c-0.592-0.076-14.684-1.676-25.496,6.032 c-6.116,4.364-9.752,10.688-11.78,15.468c0.48-3.236,0.62-7.32-0.548-11.508c-2.496-8.956-9.88-14.588-10.192-14.828 l-2.084-1.564l-0.976,2.416c-0.148,0.364-3.556,9.004-1.064,17.96c2.496,8.956,9.88,14.588,10.196,14.828l1.988,1.492 l-0.004,0.024l0.044,0.004l0.056,0.044l0.012-0.036l2.06,0.248c0.18,0.02,1.612,0.184,3.824,0.184 c5.048,0,14.156-0.856,21.676-6.22C155.504,145.741,158.572,131.897,158.696,131.309z M115.236,152.517 c-2.124-2.144-5.2-5.9-6.54-10.708c-1.332-4.788-0.636-9.608,0.072-12.548c2.12,2.144,5.196,5.9,6.54,10.708 C116.64,144.757,115.944,149.577,115.236,152.517z M145.992,146.973l-7.532-1.896l5.372-3.84l5.596,1.408 C148.448,144.133,147.304,145.593,145.992,146.973z M153.632,134.229c-0.688,1.892-1.708,4.3-3.176,6.804l-4.692-1.18 L153.632,134.229z M122.508,154.257c1.552-4.328,4.92-11.508,11.304-16.06c6.316-4.508,14.144-5.372,18.776-5.448 L122.508,154.257z M123.688,155.645l5.244-3.752c0.02,0.008,0.024,0.028,0.044,0.032l6.628,1.668 C131.148,155.141,126.736,155.585,123.688,155.645z M142.368,150.197c-1.26,0.9-2.592,1.608-3.936,2.24l-7.592-1.908l5.856-4.188 c0.108,0.096,0.192,0.216,0.344,0.256l7.444,1.872C143.812,149.069,143.124,149.657,142.368,150.197z"/> <path d="M245.208,99.765c-0.156-0.12-1.576-1.196-3.712-1.82c-11.348-3.3-22.74-0.556-29.768,7.156 c-1.004-2.28-2.164-4.472-3.388-6.628V28.609c0-11.608-9.044-21.124-20.452-21.92c-0.66-2.728-3.108-4.768-6.036-4.768H83.02 c-2.9,0-5.324,2.004-6.012,4.692h-5.344c-12.132,0-22,9.868-22,21.976l-0.848,71.828c-4.284-1.268-8.916-2.396-13.944-3.328 c-0.692-0.12-1.368,0.272-1.596,0.932c-0.228,0.664,0.06,1.392,0.68,1.72c0.848,0.444,1.664,0.856,2.444,1.248 c1.536,0.776,2.936,1.48,4.184,2.244c2.604,1.592,4.82,3.384,6.68,5.288c-3.252,8.632-5.14,17.92-5.14,27.728v2.56 c-8.132,6.552-10.792,13.848-7.96,21.772C15.88,162.569,0,167.797,0,175.681c0,0.348,0,5.052,0,6.576 c0,20.3,10.156,38.048,25.252,47.792c-1.604,1.1-2.436,2.384-2.436,3.836c0,5.996,14.952,10.176,28.372,10.176 s28.372-4.18,28.372-10.176c0-1.292-0.688-2.44-1.952-3.456c4.216-2.64,8.052-5.888,11.404-9.66 c8.068,5.02,25.48,8.824,42.4,8.824c24.592,0,46.992-7.436,46.992-15.604c0-1.812-1.072-3.46-3.076-4.944 c21.892-11.34,40.308-31.108,46.58-58.956c0.352-1.56,0.688-3.132,1.024-4.708c1.82-8.536,3.704-17.36,8.392-24.472 c2.14-3.244,6.852-5.86,10.224-4.436c0.584,0.252,1.256,0.208,1.804-0.12c0.548-0.324,0.908-0.892,0.968-1.524 c0.232-2.38,0.52-4.356,0.8-6.288c0.324-2.236,0.64-4.408,0.856-7.032C246.028,100.833,245.74,100.181,245.208,99.765z M80.792,8.145c0-1.228,1-2.228,2.228-2.228h98.832c1.228,0,2.228,1,2.228,2.228v3.016c0,1.228-1,2.228-2.228,2.228H83.02 c-1.228,0-2.228-1-2.228-2.228V8.145z M53.664,28.609c0-9.924,8.076-18,18-18h5.128v0.552c0,3.432,2.792,6.228,6.228,6.228 h98.832c3.432,0,6.228-2.796,6.228-6.228v-0.376c9.1,0.888,16.264,8.492,16.264,17.824v63.568 c-5.62-7.968-12.756-14.9-21.004-20.568c0.436-0.776,0.74-1.584,0.74-2.452c0-8.932-24.3-12.98-45.272-13.96 c-1.908-3.584-5.764-6.072-10.26-6.072c-4.496,0-8.36,2.492-10.264,6.084c-20.924,1-45.044,5.052-45.044,13.948 c0,1.196,0.484,2.296,1.292,3.324c-8.808,6.576-16.2,14.72-21.668,24.076L53.664,28.609z M128.548,71.157 c6.364,0,11.544-4.94,11.544-11.016c0-0.316-0.072-0.616-0.1-0.928c26.356,1.272,40.088,6.8,40.088,9.94 c0,3.564-17.66,10.212-51.42,10.212c-33.76,0-51.42-6.648-51.42-10.212c0-3.132,13.648-8.644,39.864-9.932 c-0.028,0.308-0.096,0.604-0.096,0.916C117.004,66.217,122.184,71.157,128.548,71.157z M128.656,58.945 c2.54,0,4.956,0.048,7.316,0.12c0.06,0.352,0.116,0.708,0.116,1.076c0,3.868-3.384,7.016-7.544,7.016 c-4.16,0-7.54-3.148-7.54-7.016c0-0.368,0.056-0.72,0.116-1.068C123.548,58.997,126.036,58.945,128.656,58.945z M123.432,55.021 c1.348-1.164,3.136-1.892,5.116-1.892c1.976,0,3.76,0.724,5.108,1.884c-1.708-0.04-3.384-0.068-4.996-0.068 C126.976,54.945,125.22,54.977,123.432,55.021z M50.236,112.145c1.944,2.9,3.068,5.968,3.184,9.052 c0.196,5.188-2.308,10.12-7.268,14.388C46.228,127.349,47.712,119.513,50.236,112.145z M45.556,139.657 c7.256-5.232,10.956-11.652,10.696-18.568c-0.26-6.988-4.728-13.848-12.344-19.076c14.64,3.832,36.432,12.22,34.388,27.9 c-0.536,4.132-3.516,7.524-9.396,10.52c-2.392,1.216-4.86,2.476-7.548,3.536c-13.504,5.32-21.04,11.672-22.888,19.336 C33.364,154.509,35.696,146.761,45.556,139.657z M35.908,164.373c0.368,0.656,0.664,1.304,1.104,1.968 c0.268,0.404,0.608,0.8,0.956,1.188l0.376,0.436c0.276,0.332,0.676,0.508,1.088,0.508c0.16,0,0.324-0.028,0.48-0.084 c0.56-0.2,0.936-0.732,0.94-1.324c0.008-1.06,0.148-2.092,0.396-3.1c3.316-0.204,6.776-0.34,10.472-0.34 c29.244,0,47.196,6.944,47.196,11.924c0,0.784-0.492,1.616-1.356,2.464c-3.668-6.036-25.46-9.284-46.128-9.284 c-20.272,0-41.628,3.12-45.904,8.936c-0.644-0.728-1.004-1.44-1.004-2.116C4.52,171.545,16.16,166.285,35.908,164.373z M95.776,179.425c-3.54,2.284-10.012,4.52-18.872,6.06c-5.924,0.984-12.756,1.7-20.248,1.92c-1.612,0.044-3.252,0.072-4.94,0.072 s-3.328-0.028-4.94-0.072c-7.492-0.22-14.324-0.936-20.248-1.92c-9.296-1.612-15.928-3.996-19.34-6.396 c2.016-3.596,18.472-8.088,44.24-8.088C78.016,170.997,94.648,175.777,95.776,179.425z M51.184,240.061 c-14.1,0-23.856-4.332-24.388-6.076c0-0.004,0.252-0.524,1.776-1.256l-0.448-0.936c7.084,3.932,15.092,6.196,23.592,6.196 c7.948,0,15.456-2,22.192-5.468l-0.1,0.212c1.336,0.644,1.688,1.12,1.748,1.12C74.948,235.769,65.22,240.061,51.184,240.061z M51.716,233.989c-24.06,0-43.964-19.416-47.208-44.54c0.356,0.336,0.696,0.676,1.112,0.996c6.248,4.824,20.416,8.4,40.956,8.4 c10.584,0,22.852-0.948,36.6-3.168l-0.36-2.24c-39.772,6.412-66.732,2.22-75.812-4.788c-1.404-1.084-2.34-2.224-2.872-3.408 c-0.048-0.9-0.136-1.788-0.14-2.7c6.716,4.372,21.308,7.72,38.172,8.66c0.148,0.008,0.3,0.016,0.448,0.024 c1.268,0.068,2.548,0.12,3.836,0.16c0.284,0.008,0.568,0.02,0.852,0.028c1.46,0.036,2.928,0.06,4.412,0.06 s2.952-0.024,4.412-0.06c0.284-0.008,0.568-0.02,0.852-0.028c1.292-0.04,2.568-0.092,3.836-0.16 c0.152-0.008,0.3-0.016,0.448-0.024c16.864-0.94,31.456-4.288,38.172-8.66c-0.004,0.916-0.092,1.808-0.14,2.708 c-1.1,2.284-3.944,3.796-6.98,5.072l0.88,2.088c1.496-0.628,3.856-1.652,5.772-3.256 C95.844,214.425,75.868,233.989,51.716,233.989z M131.412,225.593c-17.776,0-33.168-4.112-39.792-7.92 c0.844-1.104,1.624-2.268,2.388-3.44c10.876,3.908,23.036,6.092,36.18,6.092c13.48,0,27.696-3.136,40.896-9.204 c2.392,1.204,3.32,2.284,3.32,2.86C174.404,217.433,157.72,225.593,131.412,225.593z M241.156,107.965 c-0.192,1.332-0.392,2.684-0.572,4.172c-4.8-0.524-10.008,2.636-12.604,6.576c-5.1,7.74-7.064,16.94-8.964,25.836 c-0.332,1.56-0.668,3.116-1.012,4.664c-9.924,44.064-51.688,67.12-87.816,67.12c-12.364,0-23.808-2.02-34.084-5.616 c4.624-8.344,7.332-18.052,7.332-28.456c0-1.524-0.072-3.024-0.184-4.516c-0.032-0.448,0.032-2.02,0.032-2.368 c0-1.508-0.628-2.9-1.68-4.2c7.184,6.424,16.636,10.368,27.016,10.368c22.38,0,40.584-18.184,40.584-40.54 s-18.208-40.54-40.584-40.54c-22.38,0-40.588,18.184-40.588,40.54c0,10.924,4.368,20.836,11.428,28.136 c-8.224-6.26-28.536-9.512-47.748-9.512c-2.896,0-5.796,0.14-8.688,0.296c3.064-4.992,9.416-9.396,19.36-13.312 c2.816-1.108,5.348-2.4,8.084-3.792c6.396-3.26,9.972-7.476,10.632-12.532c1.5-11.504-8.272-21.456-26.756-28.068 c5.48-10.692,13.512-19.908,23.372-27.08c9.76,5.928,33.604,8.24,50.936,8.24c17.916,0,42.824-2.456,51.904-8.836 c12.74,8.612,22.784,20.348,28.4,34.296c-1.628,2.58-3.168,5.628-4.68,8.612c-3.164,6.252-7.12,13.996-10.38,13.272l-0.896,3.9 c6.356,1.444,10.468-6.72,14.844-15.364c2.196-4.344,4.468-8.836,6.772-11.392c5.98-6.628,15.848-8.956,25.752-6.076 c0.588,0.172,1.104,0.4,1.5,0.604C241.676,104.401,241.42,106.161,241.156,107.965z M92.036,141.001 c0-20.148,16.416-36.54,36.588-36.54s36.584,16.392,36.584,36.54s-16.412,36.54-36.584,36.54S92.036,161.153,92.036,141.001z"/> <rect x="120.923" y="202.364" transform="matrix(-0.6069 -0.7947 0.7947 -0.6069 43.0053 428.2618)" width="12.967" height="2.264"/> <rect x="130.489" y="202.212" transform="matrix(-0.6069 -0.7948 0.7948 -0.6069 58.499 435.6199)" width="12.967" height="2.264"/> <rect x="139.148" y="201.018" transform="matrix(-0.6069 -0.7947 0.7947 -0.6069 73.3628 440.5838)" width="12.967" height="2.264"/> <rect x="147.91" y="199.144" transform="matrix(-0.6071 -0.7946 0.7946 -0.6071 87.8535 443.9898)" width="11.56" height="2.264"/> <rect x="156.485" y="198.074" transform="matrix(-0.607 -0.7947 0.7947 -0.607 100.2609 447.9943)" width="8.836" height="2.264"/> <path d="M84.92,192.861l0.62,2.18c1.864-0.532,3.736-1.14,5.568-1.804l-0.772-2.132C88.556,191.753,86.732,192.345,84.92,192.861 z"/> </g> </g> </g> </g>
</svg>